<?xml version="1.0" encoding="UTF-8" standalone="no"?><!DOCTYPE svg PUBLIC "-//W3C//DTD SVG 1.1//EN" "http://www.w3.org/Graphics/SVG/1.1/DTD/svg11.dtd"><svg width="100%" height="100%" viewBox="0 0 1801 1801" version="1.1" xmlns="http://www.w3.org/2000/svg" xmlns:xlink="http://www.w3.org/1999/xlink" xml:space="preserve" xmlns:serif="http://www.serif.com/" style="fill-rule:evenodd;clip-rule:evenodd;stroke-linecap:round;stroke-linejoin:round;stroke-miterlimit:2;"><rect id="Artboard2" x="0.108" y="0.21" width="1800" height="1800" style="fill:none;"/><g><g><path d="M131.139,1114.74c402.901,221.497 894.092,313.672 1143.6,-161.906" style="fill:none;stroke:#ffcdcd;stroke-width:22px;"/><path d="M131.139,1114.74c276.783,-333.952 694.442,-440.717 1143.6,-161.906" style="fill:none;stroke:#ffcdcd;stroke-width:22px;"/><path d="M556.779,810.875c129.729,-15.181 247.575,79.506 263,211.315c15.424,131.808 -77.376,251.146 -207.105,266.327c-129.729,15.181 -247.575,-79.506 -263,-211.315c-15.424,-131.809 77.376,-251.146 207.105,-266.327Zm2.557,21.851c117.766,-13.781 224.59,72.367 238.592,192.021c14.002,119.654 -70.046,228.138 -187.811,241.919c-117.766,13.781 -224.59,-72.367 -238.592,-192.021c-14.002,-119.654 70.046,-228.138 187.811,-241.919Z" style="fill:#ffcdcd;"/><path d="M238.085,1156.16c-13.667,-44.212 -22.02,-90.372 -14.662,-136.516" style="fill:none;stroke:#ffcdcd;stroke-width:22px;"/><path d="M1201.47,917.132c4.916,42.012 15.302,83.83 16.858,126.192" style="fill:none;stroke:#ffcdcd;stroke-width:22px;"/></g><g><path d="M1669.08,1183.42c-423.793,178.298 -921.915,218.775 -1120.5,-280.218" style="fill:none;stroke:#cce4ff;stroke-width:22px;"/><path d="M1669.08,1183.42c-240.468,-360.981 -644.725,-510.696 -1120.5,-280.218" style="fill:none;stroke:#cce4ff;stroke-width:22px;"/><path d="M1277.43,836.847c-127.44,-28.62 -254.513,53.269 -283.592,182.752c-29.078,129.483 50.779,257.843 178.219,286.462c127.44,28.62 254.513,-53.268 283.592,-182.752c29.078,-129.483 -50.779,-257.843 -178.219,-286.462Zm-4.82,21.465c115.688,25.981 187.971,142.634 161.574,260.177c-26.397,117.543 -141.618,192.088 -257.306,166.107c-115.688,-25.98 -187.971,-142.634 -161.574,-260.176c26.397,-117.543 141.618,-192.088 257.306,-166.108l-0,0Z" style="fill:#cce4ff;"/><path d="M1558.4,1213.46c18.2,-42.547 31.32,-87.584 28.81,-134.244" style="fill:none;stroke:#cce4ff;stroke-width:22px;"/><path d="M625.168,875.33c-9.268,41.271 -23.956,81.779 -29.919,123.748" style="fill:none;stroke:#cce4ff;stroke-width:22px;"/></g><g><path d="M313.759,852.263c374.425,264.572 851.574,411.958 1154.67,-27.655" style="fill:none;stroke:#3b3b3b;stroke-width:22px;"/><path d="M313.759,852.263c313.721,-296.992 740.959,-354.004 1154.67,-27.655" style="fill:none;stroke:#3b3b3b;stroke-width:22px;"/><path d="M389.196,675.82c251.791,-213.909 729.941,-242.099 1079.23,28.786" style="fill:none;stroke:#3b3b3b;stroke-width:22px;"/><circle cx="1029.75" cy="861.048" r="243.331" style="fill:none;"/><clipPath id="_clip1"><circle cx="1029.75" cy="861.048" r="243.331"/></clipPath><g clip-path="url(#_clip1)"><circle cx="1114.53" cy="826.439" r="62.324" style="fill:#3b3b3b;"/></g><path d="M1029.75,617.717c134.298,-0 243.331,109.033 243.331,243.331c0,134.298 -109.033,243.331 -243.331,243.331c-134.298,-0 -243.331,-109.033 -243.331,-243.331c0,-134.298 109.033,-243.331 243.331,-243.331Zm0,22c122.156,-0 221.331,99.175 221.331,221.331c0,122.156 -99.175,221.331 -221.331,221.331c-122.156,-0 -221.331,-99.175 -221.331,-221.331c0,-122.156 99.175,-221.331 221.331,-221.331Z" style="fill:#3b3b3b;"/><path d="M342.091,525.906c30.24,34.513 63.529,67.644 96.937,100.571" style="fill:none;stroke:#3b3b3b;stroke-width:22px;"/><path d="M515.424,449.19c15.152,37.714 34.738,73.04 56.418,108.821" style="fill:none;stroke:#3b3b3b;stroke-width:22px;"/><path d="M751.833,388.818c7.863,38.177 13.574,76.721 22.318,114.782" style="fill:none;stroke:#3b3b3b;stroke-width:22px;"/><path d="M987.395,383.233c0,37.877 0.477,75.797 -0.882,113.668" style="fill:none;stroke:#3b3b3b;stroke-width:22px;"/><path d="M1254.62,420.637c-17.507,41.302 -36.112,82.185 -55.158,123.084" style="fill:none;stroke:#3b3b3b;stroke-width:22px;"/><path d="M1511.62,576.191c-28.082,32.054 -58.708,62.755 -89.002,93.686" style="fill:none;stroke:#3b3b3b;stroke-width:22px;"/><path d="M415.166,905.376c-8.436,-45.117 -11.368,-91.54 1.305,-136.136" style="fill:none;stroke:#3b3b3b;stroke-width:22px;"/><path d="M1399.81,781.002c-0,41.942 5.455,84.323 2.077,126.223" style="fill:none;stroke:#3b3b3b;stroke-width:22px;"/></g><path d="M465.459,1035.2c38.351,16.174 76.438,33.53 115.583,47.688" style="fill:none;stroke:#3b3b3b;stroke-width:22px;"/><circle cx="446.427" cy="1441.2" r="65.3" style="fill:#ffcdcd;"/><g><path d="M1299.35,1440.69c35.937,-4.214 72.001,-8.326 107.795,-13.706" style="fill:none;stroke:#c8dfef;stroke-width:22px;"/><path d="M1353.25,1372.98c4.484,37.444 2.249,82.209 10.844,118.92" style="fill:none;stroke:#c8dfef;stroke-width:22px;"/><path d="M1414.55,1386.62c-32.623,26.827 -65.437,53.526 -95.795,82.941" style="fill:none;stroke:#c8dfef;stroke-width:22px;"/><path d="M1305.73,1401.17c37.222,15.849 72.971,49.671 108.824,68.394" style="fill:none;stroke:#c8dfef;stroke-width:22px;"/></g></g></svg>